<svg width="512" height="512" viewBox="0 0 512 512" fill="none" xmlns="http://www.w3.org/2000/svg">
<rect width="512" height="512" fill="white" fill-opacity="0.05"/>
<path d="M443.498 427.954L262.165 299.954C258.476 297.349 253.545 297.349 249.856 299.954L68.523 427.954C65.686 429.953 63.998 433.208 64 436.679V447.346C63.999 453.237 68.775 458.013 74.666 458.013H437.333C443.224 458.013 448 453.237 448 447.346V436.679C448.006 433.213 446.327 429.958 443.498 427.954Z" fill="#FEFFFF"/>
<path d="M262.499 304.941L81.166 176.941C76.359 173.536 69.701 174.673 66.296 179.48C65.015 181.288 64.329 183.45 64.334 185.666V441.666C64.322 447.557 69.089 452.342 74.98 452.354C77.196 452.358 79.358 451.672 81.166 450.392L262.499 322.392C267.312 318.995 268.46 312.34 265.063 307.527C264.361 306.532 263.494 305.665 262.499 304.963V304.941Z" fill="white"/>
<path d="M442.24 161.195C438.694 159.383 434.438 159.67 431.168 161.942L249.835 289.942C245.022 293.339 243.874 299.994 247.271 304.807C247.973 305.802 248.84 306.669 249.835 307.371L431.168 435.371C435.975 438.776 442.633 437.639 446.038 432.832C447.315 431.03 448 428.876 448 426.667V170.667C448 166.681 445.779 163.028 442.24 161.195Z" fill="#FFFCFC"/>
<path d="M469.134 86.339C467.696 81.96 463.609 79 459.001 79H53.667C47.776 79 43 83.776 43 89.667C43 93.024 44.581 96.186 47.267 98.2L249.934 247.533C253.696 250.303 258.823 250.303 262.585 247.533L465.251 98.2C468.965 95.495 470.529 90.716 469.134 86.339Z" fill="white"/>
<path d="M458.667 74C456.359 74 454.113 74.749 452.267 76.133L256 220.752L59.733 76.133C57.887 74.749 55.641 74 53.333 74C23.878 74 0 97.878 0 127.333V404.666C0 434.122 23.878 458 53.333 458H74.666C80.557 458 85.333 453.224 85.333 447.333V201.253L249.834 317.392C253.523 319.998 258.454 319.998 262.143 317.392L426.666 201.253V447.333C426.666 453.224 431.442 458 437.333 458H458.666C488.122 458 512 434.122 512 404.667V127.333C512 97.878 488.122 74 458.667 74Z" fill="black"/>
<line x1="446" y1="79.5" x2="64" y2="79.5" stroke="black"/>
<line x1="80.0056" y1="453.5" x2="437.006" y2="457.5" stroke="black"/>
</svg>
